<svg xmlns="http://www.w3.org/2000/svg" width="212" height="241" viewBox="0 0 212 241">
  <defs>
    <style>
      .cls-1 {
        fill-rule: evenodd;
      }
    </style>
  </defs>
  <path id="Color_Fill_2" data-name="Color Fill 2" class="cls-1" d="M99,127s-43.173,44.206-43,50-7.558,12.821,12,29,31.981,31.36,39,33,74.483-74.213,78-84,43.9-57.051-2-117S30.889-6.877,9,77c-1.866,7.151-10.917,55.63,20.249,84.1,4.011,3.664,11.2.867,18.751-5.1,21.356-16.878,10.222-10.049,33-32,2.425-2.338,8-8,8-8L45,94S15.375,78.96,62,87s46,7,46,7,75.19-67.563,14,14c-0.526,1.265,9,65,9,65s-3.376,14.171-13-6S99,127,99,127Z"/>
</svg>
